# xmcd
#
# Track frame offsets: 
#        150
#        14812
#        30964
#        44770
#        59815
#        73701
#        90397
#        103087
#        116712
#        129683
#        144388
#
# Disc length: 2006 seconds
#
# Revision: 0
# Processed by: cddbd v1.5.2PL0 Copyright (c) Steve Scherf et al.
# Submitted via: ExactAudioCopy v0.99pb3
#
DISCID=a407d40b
DTITLE=Born to gun - Phantom of the black hills
DYEAR=1900
DGENRE=Bluegrass
TTITLE0=01 - scratching at my door
TTITLE1=02 - cross yourself ( before you cross me)
TTITLE2=03 - haunted men
TTITLE3=04 - thief in the house
TTITLE4=05 - whorehouse
TTITLE5=06 - step on down
TTITLE6=07 - that´s hoe i pull rank
TTITLE7=08 - world spinnin round
TTITLE8=09 - we´re under attack
TTITLE9=10 - black hills chant
TTITLE10=11 - no-no
EXTD=
EXTT0=
EXTT1=
EXTT2=
EXTT3=
EXTT4=
EXTT5=
EXTT6=
EXTT7=
EXTT8=
EXTT9=
EXTT10=
PLAYORDER=
